The Beach(2000) DVDRip Dual Audio [Hin-Eng] by imkhan -=[TDT]=@Mastitorrents
 
http://maxupload.net/images/27092396751219106205.jpg

Check out MY latest Uploads:
 
http://thepiratebay.org/user/HDvideos/0/7

Stay updated with us....

Seed after downloading....

EnjoY with HDvideos..

Torrent From Mastitorrents

Team Mastitorrents

Say thanks if u like my posts

Give ur valuable feedbacks

Quality Uploads from HDvideos

High Speed Seeding Started

General
Complete name :The Beach 2000 DvDrip Dual Audio [Hin-Eng] by imkhan -=[TDT]=-The Beach 2000 DvDrip Dual Audio [Hin-Eng] by imkhan -=[TDT]=-.mkv
Format : Matroska
File size : 520 MiB
Duration : 1h 59mn
Overall bit rate : 611 Kbps
Movie name : The Beach 2000 DvDrip Dual Audio [Hin-Eng] by imkhan -=[TDT]=-
Encoded date : UTC 2011-05-06 14:29:24
Writing application : mkvmerge v4.7.0 ('Just Like You Imagined') built on Apr 21 2011 01:13:14
Writing library : libebml v1.2.0 + libmatroska v1.1.0

Video
ID : 1
Format : AVC
Format/Info : Advanced Video Codec
Format profile : Main@L3.0
Format settings, CABAC : Yes
Format settings, ReFrames : 4 frames
Muxing mode : Container profile=Unknown@3.0
Codec ID : V_MPEG4/ISO/AVC
Duration : 1h 58mn
Bit rate : 439 Kbps
Nominal bit rate : 500 Kbps
Width : 736 pixels
Height : 350 pixels
Display aspect ratio : 2.2:1
Frame rate mode : Variable
Frame rate : 23.976 fps
Resolution : 24 bits
Colorimetry : 4:2:0
Scan type : Progressive
Bits/(Pixel*Frame) : 0.071
Stream size : 373 MiB (72%)
Title : imkhan
Writing library : x264 core 112
Encoding settings : cabac=1 / ref=2 / deblock=1:0:0 / analyse=0x1:0x111 / me=hex / subme=6 / psy=1 / psy_rd=1.00:0.00 / mixed_ref=0 / me_range=16 / chroma_me=1 / trellis=0 / 8x8dct=0 / cqm=0 / deadzone=21,11 / fast_pskip=1 / chroma_qp_offset=-2 / threads=6 / sliced_threads=0 / nr=0 / decimate=1 / interlaced=0 / constrained_intra=0 / bframes=2 / b_pyramid=2 / b_adapt=1 / b_bias=0 / direct=1 / weightb=0 / open_gop=0 / weightp=2 / keyint=250 / keyint_min=25 / scenecut=40 / intra_refresh=0 / rc_lookahead=40 / rc=2pass / mbtree=1 / bitrate=500 / ratetol=1.0 / qcomp=0.60 / qpmin=3 / qpmax=51 / qpstep=4 / cplxblur=20.0 / qblur=0.5 / ip_ratio=1.40 / aq=1:1.00
Language : Hindi
Audio #1
ID : 2
Format : MPEG Audio
Format version : Version 1
Format profile : Layer 3
Codec ID : A_MPEG/L3
Codec ID/Hint : MP3
Duration : 1h 59mn
Bit rate mode : Constant
Bit rate : 96.0 Kbps
Channel(s) : 2 channels
Sampling rate : 44.1 KHz
Resolution : 16 bits
Stream size : 81.8 MiB (16%)
Title : imkhan
Writing library : LAME3.98.2
Language : Hindi

Audio #2
ID : 3
Format : MPEG Audio
Format version : Version 2
Format profile : Layer 3
Codec ID : A_MPEG/L3
Codec ID/Hint : MP3
Duration : 1h 59mn
Bit rate mode : Constant
Bit rate : 64.0 Kbps
Channel(s) : 2 channels
Sampling rate : 22.05 KHz
Resolution : 16 bits
Stream size : 54.5 MiB (10%)
Title : imkhan
Writing library : LAME3.98.2
